<svg width="1000" height="513" viewBox="0 0 1000 513" fill="none" xmlns="http://www.w3.org/2000/svg">
<mask id="mask0" style="mask-type:alpha" maskUnits="userSpaceOnUse" x="0" y="0" width="1000" height="513">
<path d="M1000 213H6.10352e-05V513H1000V213Z" fill="black"/>
<path d="M6.10352e-05 53.3L41.6667 37.3C83.3334 21.3 166.667 -10.7 250 5.3C333.333 21.3 416.667 85.3 500 80C583.333 74.3 666.667 0.3 750 0C833.333 0.3 916.667 74.3 958.333 112L1000 149.3V213.3H958.333C916.667 213.3 833.333 213.3 750 213.3C666.667 213.3 583.333 213.3 500 213.3C416.667 213.3 333.333 213.3 250 213.3C166.667 213.3 83.3334 213.3 41.6667 213.3H6.10352e-05V53.3Z" fill="black"/>
</mask>
<g mask="url(#mask0)">
<rect width="1000" height="513" fill="#C4C4C4"/>
<mask id="mask1" style="mask-type:alpha" maskUnits="userSpaceOnUse" x="0" y="0" width="1000" height="513">
<rect width="1000" height="513" fill="#C4C4C4"/>
</mask>
<g mask="url(#mask1)">
<path d="M764.979 101.171L671.01 66.9693L636.808 160.939L730.777 195.141L764.979 101.171Z" fill="#FF6242"/>
<path fill-rule="evenodd" clip-rule="evenodd" d="M798.411 446.427C817.873 453.511 827.907 475.03 820.824 494.491C813.74 513.953 792.221 523.987 772.76 516.904C753.298 509.821 743.263 488.301 750.347 468.84C757.43 449.378 778.949 439.344 798.411 446.427Z" fill="#FFDC09"/>
<path fill-rule="evenodd" clip-rule="evenodd" d="M662.373 383.079L756.05 417.175L816.11 545.452L628.171 477.048L662.373 383.079Z" fill="white"/>
<path fill-rule="evenodd" clip-rule="evenodd" d="M756.343 417.281L628.171 477.048L722.141 511.25L756.343 417.281Z" fill="#00C9F2"/>
<path fill-rule="evenodd" clip-rule="evenodd" d="M699.312 426.32L699.781 426.491C711.458 430.742 717.479 443.653 713.229 455.33C708.979 467.007 696.067 473.028 684.39 468.778L683.921 468.607C672.244 464.357 666.223 451.445 670.473 439.768C674.723 428.091 687.635 422.07 699.312 426.32Z" fill="#26468B"/>
<path d="M944.281 485.685L850.312 451.483L781.908 639.422L875.877 673.624L944.281 485.685Z" fill="#00C9F2"/>
<path d="M662.373 383.079L568.404 348.877L534.202 442.846L628.171 477.048L662.373 383.079Z" fill="white"/>
<path fill-rule="evenodd" clip-rule="evenodd" d="M609.745 381.483L627.3 396.213L631.279 418.78L619.821 438.625L598.288 446.463L576.754 438.625L565.297 418.78L569.276 396.213L586.83 381.483H609.745Z" fill="#FFDC09"/>
<path d="M944.281 485.685L910.079 579.654L1004.05 613.856L1038.25 519.887L944.281 485.685Z" fill="#3C61AF"/>
<path d="M1081.09 109.808L987.116 75.606L952.918 169.575L1046.89 203.777L1081.09 109.808Z" fill="#FFDC09"/>
<path d="M918.716 263.545L824.747 229.343L790.545 323.312L884.514 357.514L918.716 263.545Z" fill="#3C61AF"/>
<path d="M872.201 246.615L824.747 229.343L790.545 323.312L837.999 340.584L872.201 246.615Z" fill="#FF6242"/>
<path d="M816.11 545.452L722.141 511.25L687.939 605.22L781.908 639.422L816.11 545.452Z" fill="#FFDC09"/>
<path d="M1072.46 425.918L978.486 391.716L944.281 485.685L1038.25 519.887L1072.46 425.918Z" fill="white"/>
<path d="M636.808 160.939L602.606 254.908L696.575 289.11L730.777 195.141L636.808 160.939Z" fill="#00C9F2"/>
<path d="M645.773 180.164L621.832 245.943L687.61 269.884L711.552 204.106L645.773 180.164Z" fill="white"/>
<path fill-rule="evenodd" clip-rule="evenodd" d="M666.692 225.024L602.606 254.908L619.707 207.923L666.692 225.024Z" fill="#26468B"/>
<path d="M952.918 169.575L987.116 75.606L893.151 41.404L858.949 135.373L952.918 169.575Z" fill="#00C9F2"/>
<path d="M943.953 150.35L967.896 84.5711L902.116 60.6297L878.174 126.408L943.953 150.35Z" fill="white"/>
<path fill-rule="evenodd" clip-rule="evenodd" d="M923.034 105.49L987.116 75.606L970.016 122.591L923.034 105.49Z" fill="#26468B"/>
<path fill-rule="evenodd" clip-rule="evenodd" d="M602.606 254.908L696.575 289.11L662.373 383.079L568.404 348.877L602.606 254.908Z" fill="white"/>
<path fill-rule="evenodd" clip-rule="evenodd" d="M696.575 289.11L568.404 348.877L662.373 383.079L696.575 289.11Z" fill="#E4E7EB"/>
<path fill-rule="evenodd" clip-rule="evenodd" d="M730.777 195.141L790.545 323.312L696.575 289.11L730.777 195.141Z" fill="#26468B"/>
<path d="M824.747 229.343L777.762 212.242L760.661 259.226L807.646 276.327L824.747 229.343Z" fill="#00C9F2"/>
<path fill-rule="evenodd" clip-rule="evenodd" d="M858.949 135.373L918.716 263.545L824.747 229.343L858.949 135.373Z" fill="#26468B"/>
<path fill-rule="evenodd" clip-rule="evenodd" d="M696.575 289.11L756.343 417.281L662.373 383.079L696.575 289.11Z" fill="#FF6242"/>
<path fill-rule="evenodd" clip-rule="evenodd" d="M893.151 41.404L764.979 101.171L799.181 7.20203L893.151 41.404Z" fill="#FFDC09"/>
<path d="M829.065 71.2876L811.964 118.272L858.949 135.373L876.05 88.3887L829.065 71.2876Z" fill="#E4E7EB"/>
<path fill-rule="evenodd" clip-rule="evenodd" d="M846.166 24.303L782.08 54.1866L799.181 7.20203L846.166 24.303Z" fill="#E4E7EB"/>
<path fill-rule="evenodd" clip-rule="evenodd" d="M1012.69 297.747L884.514 357.514L978.486 391.716L1012.69 297.747Z" fill="#E4E7EB"/>
<path d="M965.696 280.646L918.716 263.545L901.615 310.529L948.599 327.63L965.696 280.646Z" fill="#FFDC09"/>
<path fill-rule="evenodd" clip-rule="evenodd" d="M764.979 101.171L705.212 -27L799.181 7.20201L764.979 101.171Z" fill="#3C61AF"/>
<path d="M850.312 451.483L944.281 485.685L978.486 391.716L884.514 357.514L850.312 451.483Z" fill="#3C61AF"/>
<path fill-rule="evenodd" clip-rule="evenodd" d="M908.591 438.283L899.549 362.986L963.918 386.414L908.591 438.283Z" fill="white"/>
<path fill-rule="evenodd" clip-rule="evenodd" d="M939.676 425.242L931.499 374.615L978.486 391.716L939.676 425.242Z" fill="#FF6242"/>
<path fill-rule="evenodd" clip-rule="evenodd" d="M892.691 408.141L884.514 357.514L931.499 374.615L892.691 408.141Z" fill="#FF6242"/>
<path d="M593.969 571.018L628.171 477.048L534.202 442.846L500 536.816L593.969 571.018Z" fill="#26468B"/>
<path fill-rule="evenodd" clip-rule="evenodd" d="M580.616 512.682L505.472 521.78L528.901 457.412L580.616 512.682Z" fill="#00C9F2"/>
<path fill-rule="evenodd" clip-rule="evenodd" d="M567.938 481.729L517.101 489.831L534.202 442.846L567.938 481.729Z" fill="#E4E7EB"/>
<path fill-rule="evenodd" clip-rule="evenodd" d="M551.008 528.244L500.171 536.346L517.272 489.361L551.008 528.244Z" fill="#E4E7EB"/>
<path d="M730.777 195.141L824.747 229.343L858.949 135.373L764.979 101.171L730.777 195.141Z" fill="#E4E7EB"/>
<path fill-rule="evenodd" clip-rule="evenodd" d="M788.825 182.578L780.014 106.644L844.383 130.072L788.825 182.578Z" fill="#FFDC09"/>
<path fill-rule="evenodd" clip-rule="evenodd" d="M999.906 186.676C1025.86 196.121 1039.23 224.813 1029.79 250.762C1020.35 276.711 991.646 290.09 965.696 280.646C939.752 271.201 926.372 242.509 935.817 216.56C945.261 190.611 973.956 177.232 999.906 186.676Z" fill="#FF6242"/>
<path fill-rule="evenodd" clip-rule="evenodd" d="M991.356 210.169C1004.33 214.891 1011.02 229.237 1006.3 242.211C1001.58 255.186 987.226 261.876 974.246 257.153C961.277 252.431 954.587 238.085 959.309 225.11C964.031 212.136 978.376 205.446 991.356 210.169Z" fill="#3C61AF"/>
<path fill-rule="evenodd" clip-rule="evenodd" d="M675.156 494.149C701.105 503.594 714.484 532.286 705.04 558.235C695.595 584.184 666.903 597.563 640.954 588.119C615.005 578.674 601.626 549.982 611.07 524.033C620.515 498.084 649.207 484.705 675.156 494.149Z" fill="#E4E7EB"/>
<path fill-rule="evenodd" clip-rule="evenodd" d="M820.428 387.397L790.545 323.312L837.529 340.413L820.428 387.397Z" fill="#FFDC09"/>
<path fill-rule="evenodd" clip-rule="evenodd" d="M837.529 340.413L773.444 370.296L790.545 323.312L837.529 340.413Z" fill="#FFDC09"/>
<path fill-rule="evenodd" clip-rule="evenodd" d="M867.413 404.498L803.327 434.382L820.428 387.397L867.413 404.498Z" fill="#FFDC09"/>
<path fill-rule="evenodd" clip-rule="evenodd" d="M850.312 451.483L820.428 387.397L867.413 404.498L850.312 451.483Z" fill="#FFDC09"/>
</g>
</g>
</svg>
