<svg width="148" height="160" viewBox="0 0 148 160" fill="none" xmlns="http://www.w3.org/2000/svg">
<path d="M94.0417 71.6666L74 95L53.9584 71.6666" stroke="url(#paint0_linear)" stroke-width="8" stroke-linecap="round" stroke-linejoin="round"/>
<path d="M41.877 42.3379C41.877 41.7129 41.6556 41.2311 41.2129 40.8926C40.7767 40.554 39.9857 40.2122 38.8398 39.8672C37.694 39.5221 36.7826 39.138 36.1055 38.7148C34.8099 37.901 34.1621 36.8398 34.1621 35.5312C34.1621 34.3854 34.6276 33.4414 35.5586 32.6992C36.4961 31.957 37.7103 31.5859 39.2012 31.5859C40.1908 31.5859 41.0729 31.7682 41.8477 32.1328C42.6224 32.4974 43.2311 33.0182 43.6738 33.6953C44.1165 34.3659 44.3379 35.1113 44.3379 35.9316H41.877C41.877 35.1895 41.6426 34.61 41.1738 34.1934C40.7116 33.7702 40.0475 33.5586 39.1816 33.5586C38.3743 33.5586 37.7461 33.7311 37.2969 34.0762C36.8542 34.4212 36.6328 34.903 36.6328 35.5215C36.6328 36.0423 36.8737 36.4785 37.3555 36.8301C37.8372 37.1751 38.6315 37.5137 39.7383 37.8457C40.8451 38.1712 41.7337 38.5456 42.4043 38.9688C43.0749 39.3854 43.5664 39.8672 43.8789 40.4141C44.1914 40.9544 44.3477 41.5892 44.3477 42.3184C44.3477 43.5033 43.8919 44.4473 42.9805 45.1504C42.0755 45.847 40.8451 46.1953 39.2891 46.1953C38.2604 46.1953 37.3132 46.0065 36.4473 45.6289C35.5879 45.2448 34.9173 44.7174 34.4355 44.0469C33.9603 43.3763 33.7227 42.5951 33.7227 41.7031H36.1934C36.1934 42.5104 36.4603 43.1354 36.9941 43.5781C37.528 44.0208 38.293 44.2422 39.2891 44.2422C40.1484 44.2422 40.793 44.0697 41.2227 43.7246C41.6589 43.373 41.877 42.9108 41.877 42.3379ZM59.7652 41.3711C59.622 42.888 59.0621 44.0729 58.0855 44.9258C57.109 45.7721 55.8102 46.1953 54.1891 46.1953C53.0562 46.1953 52.0569 45.9284 51.191 45.3945C50.3316 44.8542 49.6676 44.0892 49.1988 43.0996C48.7301 42.11 48.4859 40.9609 48.4664 39.6523V38.3242C48.4664 36.9831 48.704 35.8014 49.1793 34.7793C49.6546 33.7572 50.3349 32.9694 51.2203 32.416C52.1122 31.8626 53.1409 31.5859 54.3062 31.5859C55.8753 31.5859 57.1383 32.0124 58.0953 32.8652C59.0523 33.7181 59.609 34.9225 59.7652 36.4785H57.3043C57.1871 35.4564 56.8876 34.7207 56.4059 34.2715C55.9306 33.8158 55.2307 33.5879 54.3062 33.5879C53.232 33.5879 52.4052 33.9818 51.8258 34.7695C51.2529 35.5508 50.9599 36.6999 50.9469 38.2168V39.4766C50.9469 41.013 51.2203 42.1849 51.7672 42.9922C52.3206 43.7995 53.1279 44.2031 54.1891 44.2031C55.1591 44.2031 55.8883 43.985 56.3766 43.5488C56.8648 43.1126 57.1741 42.3867 57.3043 41.3711H59.7652ZM69.6066 40.5215H66.8527V46H64.382V31.7812H69.382C71.0227 31.7812 72.2889 32.1491 73.1809 32.8848C74.0728 33.6204 74.5187 34.6849 74.5187 36.0781C74.5187 37.0286 74.2876 37.8262 73.8254 38.4707C73.3697 39.1087 72.7316 39.6003 71.9113 39.9453L75.1047 45.873V46H72.4582L69.6066 40.5215ZM66.8527 38.5391H69.3918C70.2251 38.5391 70.8762 38.3307 71.3449 37.9141C71.8137 37.4909 72.048 36.9147 72.048 36.1855C72.048 35.4238 71.8299 34.8346 71.3937 34.418C70.9641 34.0013 70.3195 33.7865 69.4602 33.7734H66.8527V38.5391ZM90.6102 39.2617C90.6102 40.6549 90.3693 41.8789 89.8875 42.9336C89.4057 43.9818 88.7156 44.7891 87.8172 45.3555C86.9253 45.9154 85.8966 46.1953 84.7313 46.1953C83.5789 46.1953 82.5503 45.9154 81.6453 45.3555C80.7469 44.7891 80.0503 43.985 79.5555 42.9434C79.0672 41.9017 78.8198 40.7005 78.8133 39.3398V38.5391C78.8133 37.1523 79.0574 35.9284 79.5457 34.8672C80.0405 33.806 80.7339 32.9954 81.6258 32.4355C82.5242 31.8691 83.5529 31.5859 84.7117 31.5859C85.8706 31.5859 86.896 31.8659 87.7879 32.4258C88.6863 32.9792 89.3797 33.7799 89.868 34.8281C90.3563 35.8698 90.6036 37.084 90.6102 38.4707V39.2617ZM88.1395 38.5195C88.1395 36.944 87.84 35.7363 87.241 34.8965C86.6486 34.0566 85.8055 33.6367 84.7117 33.6367C83.644 33.6367 82.8074 34.0566 82.202 34.8965C81.603 35.7298 81.297 36.9115 81.284 38.4414V39.2617C81.284 40.8242 81.5867 42.0319 82.1922 42.8848C82.8042 43.7376 83.6505 44.1641 84.7313 44.1641C85.825 44.1641 86.6648 43.7474 87.2508 42.9141C87.8432 42.0807 88.1395 40.8633 88.1395 39.2617V38.5195ZM97.9418 44.0273H104.397V46H95.4711V31.7812H97.9418V44.0273ZM111.162 44.0273H117.617V46H108.691V31.7812H111.162V44.0273Z" fill="url(#paint1_linear)"/>
<rect width="148" height="160"/>
<defs>
<linearGradient id="paint0_linear" x1="115.5" y1="56" x2="32.5" y2="117" gradientUnits="userSpaceOnUse">
<stop stop-color="#003482"/>
<stop offset="1" stop-color="#0066FF"/>
</linearGradient>
<linearGradient id="paint1_linear" x1="99" y1="3" x2="33" y2="70" gradientUnits="userSpaceOnUse">
<stop stop-color="#00398F"/>
<stop offset="1" stop-color="#0066FF"/>
</linearGradient>
</defs>
</svg>
