<svg width="1328" height="566" viewBox="0 0 1328 566" fill="none" xmlns="http://www.w3.org/2000/svg">
<path d="M3.00006 562.59C99 539 113.5 463.5 214.5 362.5C315.5 261.5 567 358.91 727 225C887 91.0898 943.5 184.123 1077 234.5C1148.2 261.368 1309.14 124.32 1396.5 214.5" stroke="url(#paint0_linear)" stroke-width="5" stroke-linecap="round"/>
<path d="M601.63 328.112C586.108 339.675 581.709 360.02 581.709 360.02C581.709 360.02 602.476 361.618 617.998 350.055C633.52 338.491 637.919 318.146 637.919 318.146C637.919 318.146 617.152 316.549 601.63 328.112Z" fill="#F1F1F1"/>
<path d="M608.095 333.541C600.635 351.394 581.952 360.595 581.952 360.595C581.952 360.595 575.364 340.849 582.824 322.995C590.284 305.142 608.967 295.942 608.967 295.942C608.967 295.942 615.555 315.688 608.095 333.541Z" fill="#F1F1F1"/>
<path d="M1085.08 298.67V304.869C1085.07 305.362 1084.88 305.833 1084.53 306.181C1084.18 306.53 1083.71 306.726 1083.22 306.729H1080.11C1080.03 306.729 1079.95 306.745 1079.88 306.776C1079.8 306.807 1079.73 306.852 1079.67 306.91C1079.62 306.968 1079.57 307.036 1079.54 307.111C1079.51 307.187 1079.49 307.267 1079.49 307.349V358.186C1079.49 358.678 1079.29 359.15 1078.95 359.498C1078.6 359.846 1078.13 360.043 1077.63 360.045H1039.79C1039.3 360.045 1038.82 359.849 1038.47 359.5C1038.13 359.152 1037.93 358.679 1037.93 358.186V307.349C1037.93 307.185 1037.86 307.027 1037.75 306.911C1037.63 306.795 1037.47 306.729 1037.31 306.729H1033.59C1033.09 306.729 1032.62 306.533 1032.27 306.184C1031.92 305.835 1031.73 305.362 1031.73 304.869V298.67C1031.72 298.425 1031.77 298.183 1031.87 297.957C1031.96 297.732 1032.1 297.526 1032.27 297.354C1032.44 297.181 1032.65 297.044 1032.87 296.951C1033.1 296.857 1033.34 296.809 1033.59 296.81H1083.22C1083.71 296.811 1084.18 297.008 1084.53 297.356C1084.88 297.704 1085.08 298.177 1085.08 298.67Z" fill="#F2F2F2"/>
<path d="M1079.55 308.031H1037.98V309.891H1079.55V308.031Z" fill="#E6E6E6"/>
<path d="M1079.49 335.399C1065.58 341.151 1051.52 341.214 1037.31 335.399V322.296C1050.99 317.702 1065.81 317.702 1079.49 322.296V335.399Z" fill="#E6E6E6"/>
<path d="M846.519 135.057C877.567 135.057 902.737 109.904 902.737 78.8756C902.737 47.8473 877.567 22.694 846.519 22.694C815.47 22.694 790.3 47.8473 790.3 78.8756C790.3 109.904 815.47 135.057 846.519 135.057Z" fill="#FEB8B8"/>
<path d="M899.028 30.4068C890.622 16.7671 877.466 6.71653 862.09 2.18979L855.188 7.22297V0.687534C851.495 0.122735 847.758 -0.0948416 844.025 0.0376654L838.07 5.42178V0.48498C829.254 1.57981 820.761 4.48824 813.125 9.02688C805.49 13.5655 798.878 19.6359 793.707 26.8553C780.776 45.4846 778.594 71.4022 791.312 90.181C794.803 79.4583 799.041 69.3974 802.533 58.6757C805.277 59.0495 808.058 59.063 810.806 58.7158L815.053 48.8108L816.24 58.2966C829.406 57.1507 848.934 54.6336 861.416 52.3277L860.202 45.0503L867.463 51.0973C871.287 50.2178 873.558 49.4196 873.37 48.8098C882.653 63.7653 894.014 73.3172 903.296 88.2726C906.821 67.1846 910.879 49.6502 899.028 30.4068Z" fill="#2F2E41"/>
<path d="M967.429 223.348C965.496 211.726 963.502 199.88 958.097 189.409C954.544 182.551 948.905 176.016 941.303 174.66C939.805 174.526 938.334 174.186 936.93 173.648C934.702 172.576 904.769 155.5 900.012 152.525C895.927 149.972 889.478 145.245 886.227 145.245C882.956 145.173 870.413 148.09 821.458 144.266C821.458 144.266 808.009 149.563 797.603 155.987C797.445 155.883 746.791 183.066 744.888 182.994C741.284 182.843 737.935 185.148 735.868 188.052C733.803 190.956 732.834 194.551 731.82 198.027C742.883 222.649 753.006 247.302 764.07 271.924C764.589 272.852 764.864 273.895 764.871 274.957C764.648 276.059 764.178 277.096 763.494 277.99C758.068 286.7 758.241 297.656 758.833 307.893C759.427 318.131 760.16 328.944 755.582 338.12C754.337 340.64 752.717 342.946 751.533 345.465C748.759 351.171 747.757 369.42 749.377 375.55L952.34 381.361C947.976 369.373 967.429 223.348 967.429 223.348Z" fill="#6C63FF"/>
<path d="M714.276 273.016C713.871 275.944 713.83 278.91 714.154 281.848L717.063 323.597C717.336 327.532 717.605 331.457 717.975 335.382C718.673 343 719.715 350.557 721.009 358.102C721.039 359.174 721.492 360.19 722.27 360.928C723.048 361.665 724.087 362.064 725.159 362.037C737.965 364.745 751.195 364.637 764.263 363.899C784.206 362.787 835.225 360.682 838.342 356.636C841.459 352.589 839.643 346.044 835.579 342.772C831.514 339.5 764.186 331.523 764.186 331.523C764.844 326.313 766.829 321.407 768.711 316.46C772.093 307.687 775.251 298.626 775.312 289.228C775.373 279.83 771.83 269.949 764.126 264.565C757.789 260.145 749.63 259.325 741.907 259.507C736.289 259.668 726.581 258.323 721.449 260.518C717.388 262.305 715.034 269.042 714.276 273.016Z" fill="#FBBEBE"/>
<path d="M731.234 198.776C730.248 199.808 729.484 201.03 728.987 202.368C720.805 220.796 715.972 240.534 714.715 260.656C714.737 261.637 714.51 262.608 714.057 263.478C713.609 264.058 713.111 264.596 712.569 265.087C712.095 265.647 711.737 266.295 711.515 266.994C711.292 267.693 711.21 268.429 711.272 269.16C711.334 269.89 711.539 270.602 711.877 271.253C712.214 271.905 712.676 272.483 713.237 272.956C713.329 273.034 713.423 273.108 713.52 273.18C715.19 270.039 719.188 269.012 722.742 268.739C739.758 267.394 756.38 275.305 773.447 274.708C772.242 270.55 770.511 266.554 769.529 262.346C765.186 243.662 776.017 223.319 769.377 205.322C768.05 201.721 765.834 198.18 762.342 196.602C760.896 196.019 759.383 195.619 757.837 195.411C753.525 194.632 744.94 191.304 740.771 192.639C739.232 193.135 738.625 194.581 737.349 195.455C735.411 196.692 732.84 197.147 731.234 198.776Z" fill="#6C63FF"/>
<path d="M967.551 260.518C962.419 258.323 952.711 259.668 947.092 259.507C939.37 259.325 931.211 260.145 924.874 264.565C917.17 269.949 913.627 279.83 913.688 289.228C913.749 298.626 916.907 307.687 920.289 316.46C922.171 321.407 924.156 326.313 924.813 331.523C924.813 331.523 857.486 339.5 853.421 342.772C849.357 346.044 847.541 352.589 850.658 356.636C853.775 360.682 951.035 364.745 963.841 362.037C964.913 362.064 965.952 361.665 966.73 360.928C967.508 360.19 967.961 359.174 967.991 358.102C969.285 350.557 970.327 343 971.025 335.382C971.395 331.457 971.664 327.532 971.937 323.597L974.846 281.848C975.17 278.91 975.129 275.944 974.724 273.016C973.966 269.042 971.612 262.305 967.551 260.518Z" fill="#FBBEBE"/>
<path d="M951.651 195.455C950.375 194.581 949.768 193.135 948.229 192.639C944.06 191.304 935.475 194.632 931.163 195.411C929.617 195.619 928.104 196.019 926.658 196.602C923.166 198.18 920.95 201.721 919.623 205.322C912.983 223.319 923.814 243.662 919.471 262.346C918.489 266.554 916.758 270.55 915.553 274.708C932.62 275.305 949.242 267.394 966.258 268.739C969.812 269.012 973.81 270.039 975.48 273.18C975.577 273.108 975.671 273.034 975.763 272.956C976.324 272.483 976.786 271.905 977.124 271.253C977.461 270.602 977.666 269.89 977.728 269.16C977.79 268.429 977.708 267.693 977.485 266.994C977.263 266.296 976.905 265.647 976.431 265.087C975.889 264.596 975.391 264.058 974.943 263.478C974.49 262.608 974.263 261.637 974.286 260.656C973.028 240.534 968.195 220.796 960.013 202.368C959.517 201.03 958.752 199.808 957.766 198.776C956.16 197.147 953.589 196.692 951.651 195.455Z" fill="#6C63FF"/>
<path d="M829.868 364.031C838.249 364.031 845.042 357.242 845.042 348.868C845.042 340.493 838.249 333.704 829.868 333.704C821.488 333.704 814.695 340.493 814.695 348.868C814.695 357.242 821.488 364.031 829.868 364.031Z" fill="#FBBEBE"/>
<path d="M863.467 364.031C871.847 364.031 878.64 357.242 878.64 348.868C878.64 340.493 871.847 333.704 863.467 333.704C855.087 333.704 848.293 340.493 848.293 348.868C848.293 357.242 855.087 364.031 863.467 364.031Z" fill="#FBBEBE"/>
<path d="M957.129 383.037H748.669C746.235 383.034 743.901 382.066 742.18 380.347C740.459 378.627 739.491 376.295 739.488 373.863V247.48C739.491 245.047 740.459 242.716 742.18 240.996C743.901 239.276 746.235 238.309 748.669 238.306H957.129C959.563 238.309 961.896 239.276 963.617 240.996C965.338 242.716 966.306 245.047 966.309 247.48V373.863C966.306 376.295 965.338 378.627 963.617 380.347C961.896 382.066 959.563 383.034 957.129 383.037Z" fill="#3F3D56"/>
<path d="M852.393 316.741C855.747 316.741 858.467 314.024 858.467 310.671C858.467 307.319 855.747 304.602 852.393 304.602C849.039 304.602 846.319 307.319 846.319 310.671C846.319 314.024 849.039 316.741 852.393 316.741Z" fill="white"/>
<path d="M1194 357.545H495V379.01H536.345V384H1152.67V379.01H1194V357.545Z" fill="#F1F1F1"/>
<path d="M794.822 99.8155C785.789 99.8155 778.466 91.903 778.466 82.1424V73.3058C778.466 63.5452 785.789 55.6327 794.822 55.6327V99.8155H794.822Z" fill="#6C63FF"/>
<path d="M899.218 55.6328C908.251 55.6328 915.574 63.5453 915.574 73.3059V82.1425C915.574 91.903 908.251 99.8155 899.218 99.8155V55.6328Z" fill="#6C63FF"/>
<path d="M907.789 74.6945H905.193C905.193 39.1327 878.418 10.201 845.506 10.201C812.594 10.201 785.819 39.1327 785.819 74.6945H783.224C783.224 37.5865 811.163 7.39696 845.506 7.39696C879.849 7.39697 907.789 37.5865 907.789 74.6945Z" fill="#6C63FF"/>
<defs>
<linearGradient id="paint0_linear" x1="1373" y1="43" x2="83" y2="577" gradientUnits="userSpaceOnUse">
<stop stop-color="#00398F"/>
<stop offset="1" stop-color="#0066FF"/>
</linearGradient>
</defs>
</svg>
